<?xml version="1.0" encoding="UTF-8" standalone="no"?>
<svg
   xmlns:dc="http://purl.org/dc/elements/1.1/"
   xmlns:cc="http://creativecommons.org/ns#"
   xmlns:rdf="http://www.w3.org/1999/02/22-rdf-syntax-ns#"
   xmlns:svg="http://www.w3.org/2000/svg"
   xmlns="http://www.w3.org/2000/svg"
   xmlns:sodipodi="http://sodipodi.sourceforge.net/DTD/sodipodi-0.dtd"
   xmlns:inkscape="http://www.inkscape.org/namespaces/inkscape"
   inkscape:version="1.0 (4035a4fb49, 2020-05-01)"
   sodipodi:docname="Made_with_Macromedia_logo_1997.svg"
   xml:space="preserve"
   enable-background="new 0 0 146.962 130.812"
   viewBox="0 0 146.962 130.812"
   height="130.812px"
   width="146.962px"
   y="0px"
   x="0px"
   id="Layer_1"
   version="1.1"><metadata
   id="metadata1349"><rdf:RDF><cc:Work
       rdf:about=""><dc:format>image/svg+xml</dc:format><dc:type
         rdf:resource="http://purl.org/dc/dcmitype/StillImage" /></cc:Work></rdf:RDF></metadata><defs
   id="defs1347" /><sodipodi:namedview
   inkscape:current-layer="g1340"
   inkscape:window-maximized="1"
   inkscape:window-y="-8"
   inkscape:window-x="-8"
   inkscape:cy="65.405998"
   inkscape:cx="73.481003"
   inkscape:zoom="6.2608937"
   showgrid="false"
   id="namedview1345"
   inkscape:window-height="1009"
   inkscape:window-width="1920"
   inkscape:pageshadow="2"
   inkscape:pageopacity="0"
   guidetolerance="10"
   gridtolerance="10"
   objecttolerance="10"
   borderopacity="1"
   bordercolor="#666666"
   pagecolor="#ffffff" />
<g
   id="g1342">
	<g
   id="g1340">
		
			<path
   id="path1246"
   d="m 10.928,2.855 h 122.364 c 5.898,0 10.679,4.781 10.679,10.679 v 106.349 c 0,5.898 -4.78,10.679 -10.679,10.679 H 10.928 C 5.03,130.562 0.25,125.782 0.25,119.883 V 13.534 C 0.25,7.636 5.03,2.855 10.928,2.855 Z"
   stroke-miterlimit="22.9256"
   stroke-width="0.5"
   stroke="#455398"
   fill="#455398"
   clip-rule="evenodd"
   fill-rule="evenodd" />
		<polygon
   id="polygon1248"
   points="16.977,95.6 16.92,94.441 17.353,95.558 19.782,100.765 22.882,100.765 25.254,95.558 25.729,94.441 25.673,95.572 25.673,100.765 29.457,100.765 29.457,90.016 24.514,90.016 21.611,95.753 21.304,96.591 20.996,95.753 18.135,90.016 13.18,90.016 13.18,100.765 16.977,100.765 "
   fill="#ffffff"
   clip-rule="evenodd"
   fill-rule="evenodd" />
		<path
   id="path1250"
   d="M 45.319,100.765 40.293,90.016 h -4.509 l -5.138,10.749 h 4.035 L 35.575,98.7 h 4.83 l 0.879,2.065 z m -5.934,-4.523 h -2.792 l 1.019,-2.332 0.363,-0.893 0.418,0.893 z"
   fill="#ffffff"
   clip-rule="evenodd"
   fill-rule="evenodd" />
		<path
   id="path1252"
   d="m 59.967,95.558 c 0,-4.243 -2.653,-5.542 -6.059,-5.542 -1.383,0 -7.399,0 -7.399,0 v 10.749 c 0,0 5.598,0 6.966,0 4.998,0 6.492,-2.234 6.492,-5.207 z m -4.049,-0.14 c 0,2.011 -1.299,2.694 -2.932,2.694 -1.062,0 -2.555,0 -2.555,0 v -5.514 c 0,0 1.605,0 2.694,0 1.257,0.001 2.793,0.615 2.793,2.82 z"
   fill="#ffffff"
   clip-rule="evenodd"
   fill-rule="evenodd" />
		<polygon
   id="polygon1254"
   points="61.923,90.016 61.923,100.765 74.083,100.765 73.035,98.07 65.721,98.07 65.721,96.562 72.282,96.562 72.282,94.064 65.721,94.064 65.721,92.641 72.672,92.641 73.553,90.016 "
   fill="#ffffff"
   clip-rule="evenodd"
   fill-rule="evenodd" />
		<polygon
   id="polygon1256"
   points="81.787,90.016 77.739,90.016 81.606,100.765 85.446,100.793 87.288,96.019 87.706,94.943 88.14,96.032 89.983,100.765 93.793,100.765 97.521,90.016 93.611,90.016 92.021,94.972 91.644,96.214 91.197,94.972 89.396,90.016 85.878,90.016 84.231,94.846 83.771,96.214 83.323,94.818 "
   fill="#ffffff"
   clip-rule="evenodd"
   fill-rule="evenodd" />
		<rect
   id="rect1258"
   height="10.749"
   width="3.9230001"
   fill="#ffffff"
   clip-rule="evenodd"
   fill-rule="evenodd"
   y="90.015999"
   x="98.712997" />
		<polygon
   id="polygon1260"
   points="104.24,90.016 104.24,92.641 108.275,92.641 108.275,100.793 112.184,100.793 112.184,92.641 116.386,92.641 116.386,90.016 "
   fill="#ffffff"
   clip-rule="evenodd"
   fill-rule="evenodd" />
		<polygon
   id="polygon1262"
   points="126.899,96.396 126.899,100.765 130.821,100.765 130.821,90.016 126.899,90.016 126.899,93.688 121.775,93.688 121.775,90.016 117.853,90.016 117.853,100.765 121.775,100.765 121.775,96.396 "
   fill="#ffffff"
   clip-rule="evenodd"
   fill-rule="evenodd" />
		
			<path
   id="path1264"
   d="m 28.743,117.038 c 0,-2.232 0,-5.351 0,-5.351 0,-1.891 -0.715,-3.884 -3.629,-3.884 -1.942,0 -2.964,0.902 -3.544,1.789 -0.477,-1.142 -1.823,-1.789 -3.169,-1.789 -1.84,0 -2.828,0.987 -3.289,1.55 v -1.482 h -1.72 v 9.167 h 1.72 v -5.811 c 0.307,-0.937 1.107,-2.078 2.846,-2.078 1.346,0 2.368,1.057 2.368,2.59 0,0 0,4.907 0,5.299 h 1.635 c 0,0 0,-5.248 0,-5.299 0,-1.107 0.835,-2.573 2.726,-2.573 1.705,0 2.352,1.142 2.352,2.642 0,0 0,2.93 0,5.23 z"
   stroke-miterlimit="22.9256"
   stroke-width="0.2452"
   stroke="#ffffff"
   fill="#ffffff"
   clip-rule="evenodd"
   fill-rule="evenodd" />
		<path
   id="path1266"
   d="m 41.384,116.986 v -1.09 c -0.05,0.017 -0.511,0 -0.664,0 -0.409,-0.034 -0.579,-0.307 -0.579,-1.039 0,-1.432 0,-3.17 0,-4.004 0,-2.096 -1.483,-3.067 -4.124,-3.067 -2.146,0 -3.612,0.818 -4.498,1.908 l 0.988,0.818 c 0.75,-1.073 2.096,-1.466 3.442,-1.466 1.806,0 2.436,0.613 2.436,1.397 0,0.357 -0.392,0.682 -2.914,0.92 -2.265,0.188 -4.515,0.767 -4.515,2.999 0,1.721 1.21,2.76 3.51,2.76 1.432,0 2.914,-0.272 4.089,-1.346 0.102,0.732 0.426,1.295 1.465,1.295 0.445,0.001 1.006,-0.05 1.364,-0.085 z m -2.998,-3.032 c -0.102,1.073 -1.38,2.027 -3.356,2.027 -1.618,0 -2.3,-0.528 -2.3,-1.584 0,-1.415 1.363,-1.857 3.118,-2.011 1.38,-0.137 2.215,-0.341 2.607,-0.682 -0.017,0.512 -0.017,1.603 -0.069,2.25 z"
   fill="#ffffff"
   clip-rule="evenodd"
   fill-rule="evenodd" />
		
			<line
   id="line1268"
   y2="115.896"
   x2="41.383999"
   y1="116.986"
   x1="41.383999"
   stroke-miterlimit="22.9256"
   stroke-width="0.2452"
   stroke="#ffffff"
   fill="none"
   clip-rule="evenodd"
   fill-rule="evenodd" />
		
			<path
   id="path1270"
   d="m 41.384,115.896 c -0.05,0.017 -0.511,0 -0.664,0 -0.409,-0.034 -0.579,-0.307 -0.579,-1.039 0,-1.432 0,-3.17 0,-4.004 0,-2.096 -1.483,-3.067 -4.124,-3.067 -2.146,0 -3.612,0.818 -4.498,1.908"
   stroke-miterlimit="22.9256"
   stroke-width="0.2452"
   stroke="#ffffff"
   fill="none"
   clip-rule="evenodd"
   fill-rule="evenodd" />
		
			<line
   id="line1272"
   y2="110.513"
   x2="32.507999"
   y1="109.694"
   x1="31.52"
   stroke-miterlimit="22.9256"
   stroke-width="0.2452"
   stroke="#ffffff"
   fill="none"
   clip-rule="evenodd"
   fill-rule="evenodd" />
		
			<path
   id="path1274"
   d="m 32.508,110.513 c 0.75,-1.073 2.096,-1.466 3.442,-1.466 1.806,0 2.436,0.613 2.436,1.397 0,0.357 -0.392,0.682 -2.914,0.92 -2.265,0.188 -4.515,0.767 -4.515,2.999 0,1.721 1.21,2.76 3.51,2.76 1.432,0 2.914,-0.272 4.089,-1.346 0.102,0.732 0.426,1.295 1.465,1.295 0.443,0 1.005,-0.052 1.363,-0.086"
   stroke-miterlimit="22.9256"
   stroke-width="0.2452"
   stroke="#ffffff"
   fill="none"
   clip-rule="evenodd"
   fill-rule="evenodd" />
		
			<path
   id="path1276"
   d="m 38.386,113.954 c -0.102,1.073 -1.38,2.027 -3.356,2.027 -1.618,0 -2.3,-0.528 -2.3,-1.584 0,-1.415 1.363,-1.857 3.118,-2.011 1.38,-0.137 2.215,-0.341 2.607,-0.682 -0.017,0.512 -0.017,1.603 -0.069,2.25"
   stroke-miterlimit="22.9256"
   stroke-width="0.2452"
   stroke="#ffffff"
   fill="none"
   clip-rule="evenodd"
   fill-rule="evenodd" />
		
			<path
   id="path1278"
   d="m 52.897,114.38 -1.67,-0.272 c -0.613,1.312 -1.619,1.789 -3.168,1.789 -1.619,0 -3.374,-1.022 -3.374,-3.408 0,-2.282 1.448,-3.476 3.356,-3.476 1.448,0 2.641,0.613 3.118,1.722 l 1.721,-0.308 c -0.596,-1.602 -2.318,-2.641 -4.856,-2.641 -3.066,0 -5.078,1.755 -5.078,4.669 0,3.169 2.232,4.651 5.112,4.651 2.386,0 4.089,-0.75 4.839,-2.726 z"
   stroke-miterlimit="22.9256"
   stroke-width="0.2452"
   stroke="#ffffff"
   fill="#ffffff"
   clip-rule="evenodd"
   fill-rule="evenodd" />
		
			<path
   id="path1280"
   d="m 60.681,109.269 v -1.465 c -0.052,0 -0.12,0 -0.17,0 -1.806,0 -2.914,0.715 -3.629,1.721 v -1.636 H 55.16 v 9.149 h 1.721 v -5.776 c 0.562,-1.142 1.584,-2.078 3.288,-2.078 0.153,0 0.41,0.05 0.512,0.085 z"
   stroke-miterlimit="22.9256"
   stroke-width="0.2452"
   stroke="#ffffff"
   fill="#ffffff"
   clip-rule="evenodd"
   fill-rule="evenodd" />
		<path
   id="path1282"
   d="m 72.536,112.455 c 0,-3.016 -2.266,-4.669 -5.333,-4.669 -3.186,0 -5.333,1.807 -5.333,4.669 0,2.981 2.079,4.668 5.333,4.668 3.068,0 5.333,-1.771 5.333,-4.668 z m -1.738,0 c 0,2.078 -1.346,3.441 -3.595,3.441 -1.891,0 -3.611,-1.091 -3.611,-3.441 0,-2.198 1.67,-3.459 3.611,-3.459 1.823,0 3.595,1.056 3.595,3.459 z"
   fill="#ffffff"
   clip-rule="evenodd"
   fill-rule="evenodd" />
		
			<path
   id="path1284"
   d="m 72.536,112.455 c 0,-3.016 -2.266,-4.669 -5.333,-4.669 -3.186,0 -5.333,1.807 -5.333,4.669 0,2.981 2.079,4.668 5.333,4.668 3.068,0 5.333,-1.771 5.333,-4.668"
   stroke-miterlimit="22.9256"
   stroke-width="0.2452"
   stroke="#ffffff"
   fill="none"
   clip-rule="evenodd"
   fill-rule="evenodd" />
		
			<path
   id="path1286"
   d="m 70.798,112.455 c 0,2.078 -1.346,3.441 -3.595,3.441 -1.891,0 -3.611,-1.091 -3.611,-3.441 0,-2.198 1.67,-3.459 3.611,-3.459 1.823,0 3.595,1.056 3.595,3.459"
   stroke-miterlimit="22.9256"
   stroke-width="0.2452"
   stroke="#ffffff"
   fill="none"
   clip-rule="evenodd"
   fill-rule="evenodd" />
		
			<path
   id="path1288"
   d="m 90.39,117.038 c 0,-2.232 0,-5.351 0,-5.351 0,-1.891 -0.717,-3.884 -3.629,-3.884 -1.943,0 -2.965,0.902 -3.545,1.789 -0.477,-1.142 -1.823,-1.789 -3.169,-1.789 -1.841,0 -2.829,0.987 -3.289,1.55 v -1.482 h -1.721 v 9.167 h 1.721 v -5.811 c 0.308,-0.937 1.108,-2.078 2.846,-2.078 1.347,0 2.368,1.057 2.368,2.59 0,0 0,4.907 0,5.299 h 1.636 c 0,0 0,-5.248 0,-5.299 0,-1.107 0.835,-2.573 2.728,-2.573 1.702,0 2.35,1.142 2.35,2.642 0,0 0,2.93 0,5.23 z"
   stroke-miterlimit="22.9256"
   stroke-width="0.2452"
   stroke="#ffffff"
   fill="#ffffff"
   clip-rule="evenodd"
   fill-rule="evenodd" />
		<path
   id="path1290"
   d="m 103.029,112.812 c 0.018,-3.254 -1.993,-5.026 -5.196,-5.026 -2.828,0 -5.094,1.807 -5.094,4.549 0,3.204 2.096,4.788 5.111,4.788 2.538,0 4.191,-1.107 4.906,-2.692 l -1.669,-0.289 c -0.528,1.158 -1.653,1.789 -3.237,1.789 -1.789,0 -3.323,-1.091 -3.391,-3.118 10e-4,-0.018 8.57,-0.001 8.57,-0.001 z m -1.737,-1.073 h -6.798 c 0.136,-1.688 1.737,-2.777 3.356,-2.777 1.738,0 3.135,0.767 3.442,2.777 z"
   fill="#ffffff"
   clip-rule="evenodd"
   fill-rule="evenodd" />
		
			<path
   id="path1292"
   d="m 103.029,112.812 c 0.018,-3.254 -1.993,-5.026 -5.196,-5.026 -2.828,0 -5.094,1.807 -5.094,4.549 0,3.204 2.096,4.788 5.111,4.788 2.538,0 4.191,-1.107 4.906,-2.692"
   stroke-miterlimit="22.9256"
   stroke-width="0.2452"
   stroke="#ffffff"
   fill="none"
   clip-rule="evenodd"
   fill-rule="evenodd" />
		
			<line
   id="line1294"
   y2="114.142"
   x2="101.088"
   y1="114.431"
   x1="102.757"
   stroke-miterlimit="22.9256"
   stroke-width="0.2452"
   stroke="#ffffff"
   fill="none"
   clip-rule="evenodd"
   fill-rule="evenodd" />
		
			<path
   id="path1296"
   d="m 101.088,114.142 c -0.528,1.158 -1.653,1.789 -3.237,1.789 -1.789,0 -3.323,-1.091 -3.391,-3.118 0,-0.018 8.569,0 8.569,0"
   stroke-miterlimit="22.9256"
   stroke-width="0.2452"
   stroke="#ffffff"
   fill="none"
   clip-rule="evenodd"
   fill-rule="evenodd" />
		
			<line
   id="line1298"
   y2="111.739"
   x2="94.494003"
   y1="111.739"
   x1="101.292"
   stroke-miterlimit="22.9256"
   stroke-width="0.2452"
   stroke="#ffffff"
   fill="none"
   clip-rule="evenodd"
   fill-rule="evenodd" />
		
			<path
   id="path1300"
   d="m 94.494,111.739 c 0.136,-1.688 1.737,-2.777 3.356,-2.777 1.737,0 3.135,0.767 3.441,2.777"
   stroke-miterlimit="22.9256"
   stroke-width="0.2452"
   stroke="#ffffff"
   fill="none"
   clip-rule="evenodd"
   fill-rule="evenodd" />
		<path
   id="path1302"
   d="m 114.988,117.038 v -13.119 h -1.703 c 0,0 0,5.299 0,5.384 -0.579,-0.767 -1.908,-1.499 -3.646,-1.499 -2.641,0 -4.839,1.687 -4.839,4.634 0,3.016 2.079,4.669 4.89,4.669 1.909,0 3.136,-0.801 3.612,-1.551 v 1.482 z m -1.72,-3.561 c -0.051,1.21 -1.312,2.488 -3.254,2.488 -1.823,0 -3.476,-1.074 -3.476,-3.527 0,-2.027 1.243,-3.459 3.459,-3.459 1.721,0 3.151,1.176 3.271,2.352 0,0.068 0.018,0.664 0.018,1.057 -0.001,0.407 -0.018,1.021 -0.018,1.089 z"
   fill="#ffffff"
   clip-rule="evenodd"
   fill-rule="evenodd" />
		
			<polyline
   id="polyline1304"
   points="    114.988,117.038 114.988,103.919 113.285,103.919   "
   stroke-miterlimit="22.9256"
   stroke-width="0.2452"
   stroke="#ffffff"
   fill="none"
   clip-rule="evenodd"
   fill-rule="evenodd" />
		
			<path
   id="path1306"
   d="m 113.285,103.919 c 0,0 0,5.299 0,5.384 -0.579,-0.767 -1.908,-1.499 -3.646,-1.499 -2.641,0 -4.839,1.687 -4.839,4.634 0,3.016 2.079,4.669 4.89,4.669 1.909,0 3.136,-0.801 3.612,-1.551"
   stroke-miterlimit="22.9256"
   stroke-width="0.2452"
   stroke="#ffffff"
   fill="none"
   clip-rule="evenodd"
   fill-rule="evenodd" />
		
			<polyline
   id="polyline1308"
   points="    113.302,115.556 113.302,117.038 114.988,117.038   "
   stroke-miterlimit="22.9256"
   stroke-width="0.2452"
   stroke="#ffffff"
   fill="none"
   clip-rule="evenodd"
   fill-rule="evenodd" />
		
			<path
   id="path1310"
   d="m 113.268,113.477 c -0.051,1.21 -1.312,2.488 -3.254,2.488 -1.823,0 -3.476,-1.074 -3.476,-3.527 0,-2.027 1.243,-3.459 3.459,-3.459 1.721,0 3.151,1.176 3.271,2.352 0,0.068 0.018,0.664 0.018,1.057 -0.001,0.407 -0.018,1.021 -0.018,1.089"
   stroke-miterlimit="22.9256"
   stroke-width="0.2452"
   stroke="#ffffff"
   fill="none"
   clip-rule="evenodd"
   fill-rule="evenodd" />
		<path
   id="path1312"
   d="m 119.704,106.491 v -1.755 h -1.789 v 1.755 z m -0.034,10.547 v -9.167 h -1.721 v 9.167 z"
   fill="#ffffff"
   clip-rule="evenodd"
   fill-rule="evenodd" />
		
			<rect
   id="rect1314"
   height="1.755"
   width="1.789"
   stroke-miterlimit="22.9256"
   stroke-width="0.2452"
   stroke="#ffffff"
   fill="none"
   clip-rule="evenodd"
   fill-rule="evenodd"
   y="104.736"
   x="117.915" />
		
			<rect
   id="rect1316"
   height="9.1669998"
   width="1.721"
   stroke-miterlimit="22.9256"
   stroke-width="0.2452"
   stroke="#ffffff"
   fill="none"
   clip-rule="evenodd"
   fill-rule="evenodd"
   y="107.871"
   x="117.949" />
		<path
   id="path1318"
   d="m 132.309,116.986 v -1.09 c -0.051,0.017 -0.511,0 -0.664,0 -0.409,-0.034 -0.579,-0.307 -0.579,-1.039 0,-1.432 0,-3.17 0,-4.004 0,-2.096 -1.482,-3.067 -4.123,-3.067 -2.147,0 -3.612,0.818 -4.498,1.908 l 0.988,0.818 c 0.749,-1.073 2.096,-1.466 3.441,-1.466 1.806,0 2.437,0.613 2.437,1.397 0,0.357 -0.392,0.682 -2.914,0.92 -2.266,0.188 -4.515,0.767 -4.515,2.999 0,1.721 1.21,2.76 3.51,2.76 1.432,0 2.913,-0.272 4.09,-1.346 0.102,0.732 0.425,1.295 1.465,1.295 0.442,0.001 1.004,-0.05 1.362,-0.085 z m -2.998,-3.032 c -0.103,1.073 -1.38,2.027 -3.356,2.027 -1.619,0 -2.301,-0.528 -2.301,-1.584 0,-1.415 1.363,-1.857 3.118,-2.011 1.381,-0.137 2.215,-0.341 2.607,-0.682 -0.018,0.512 -0.018,1.603 -0.068,2.25 z"
   fill="#ffffff"
   clip-rule="evenodd"
   fill-rule="evenodd" />
		
			<line
   id="line1320"
   y2="115.896"
   x2="132.30901"
   y1="116.986"
   x1="132.30901"
   stroke-miterlimit="22.9256"
   stroke-width="0.2452"
   stroke="#ffffff"
   fill="none"
   clip-rule="evenodd"
   fill-rule="evenodd" />
		
			<path
   id="path1322"
   d="m 132.309,115.896 c -0.051,0.017 -0.511,0 -0.664,0 -0.409,-0.034 -0.579,-0.307 -0.579,-1.039 0,-1.432 0,-3.17 0,-4.004 0,-2.096 -1.482,-3.067 -4.123,-3.067 -2.147,0 -3.612,0.818 -4.498,1.908"
   stroke-miterlimit="22.9256"
   stroke-width="0.2452"
   stroke="#ffffff"
   fill="none"
   clip-rule="evenodd"
   fill-rule="evenodd" />
		
			<line
   id="line1324"
   y2="110.513"
   x2="123.433"
   y1="109.694"
   x1="122.444"
   stroke-miterlimit="22.9256"
   stroke-width="0.2452"
   stroke="#ffffff"
   fill="none"
   clip-rule="evenodd"
   fill-rule="evenodd" />
		
			<path
   id="path1326"
   d="m 123.433,110.513 c 0.749,-1.073 2.096,-1.466 3.441,-1.466 1.806,0 2.437,0.613 2.437,1.397 0,0.357 -0.392,0.682 -2.914,0.92 -2.266,0.188 -4.515,0.767 -4.515,2.999 0,1.721 1.21,2.76 3.51,2.76 1.432,0 2.913,-0.272 4.09,-1.346 0.102,0.732 0.425,1.295 1.465,1.295 0.442,0 1.005,-0.052 1.362,-0.086"
   stroke-miterlimit="22.9256"
   stroke-width="0.2452"
   stroke="#ffffff"
   fill="none"
   clip-rule="evenodd"
   fill-rule="evenodd" />
		
			<path
   id="path1328"
   d="m 129.311,113.954 c -0.103,1.073 -1.38,2.027 -3.356,2.027 -1.619,0 -2.301,-0.528 -2.301,-1.584 0,-1.415 1.363,-1.857 3.118,-2.011 1.381,-0.137 2.215,-0.341 2.607,-0.682 -0.018,0.512 -0.018,1.603 -0.068,2.25"
   stroke-miterlimit="22.9256"
   stroke-width="0.2452"
   stroke="#ffffff"
   fill="none"
   clip-rule="evenodd"
   fill-rule="evenodd" />
		<path
   id="path1330"
   d="m 84.521,20.385 43.724,43.511 c 4.007,4.007 4.007,10.503 0,14.51 -2.041,2.041 -4.729,3.042 -7.403,3.004 L 23.414,81.409 c -2.687,0.048 -5.388,-0.954 -7.437,-3.003 -4.007,-4.007 -4.007,-10.503 0,-14.51 L 59.701,20.385 c 6.854,-6.854 17.965,-6.854 24.82,0 z"
   fill="#ffffff"
   clip-rule="evenodd"
   fill-rule="evenodd" />
		<path
   id="path1332"
   d="m 64.626,37.923 c 4.068,4.068 4.068,10.664 0,14.731 L 46.214,71.066 c -4.068,4.067 -10.663,4.067 -14.731,0 -4.067,-4.068 -4.067,-10.663 0,-14.731 L 49.896,37.922 c 4.068,-4.067 10.663,-4.067 14.73,0.001 z"
   fill="#010101"
   clip-rule="evenodd"
   fill-rule="evenodd" />
		<path
   id="path1334"
   d="m 94.144,38.05 18.416,18.171 c 4.068,4.068 4.068,10.665 0,14.733 -4.068,4.068 -10.665,4.068 -14.733,0 L 86.776,59.66 75.726,70.954 c -4.068,4.068 -10.665,4.068 -14.733,0 -4.068,-4.068 -4.068,-10.665 0,-14.733 L 79.411,38.05 c 4.068,-4.069 10.664,-4.069 14.733,0 z"
   fill="#455398"
   clip-rule="evenodd"
   fill-rule="evenodd" />
		
		
	</g>
</g>
</svg>
